name rise37.2698peak67.6939fall79.5734.mot
datacolumns 19
datarows 11
range 12.82161700000000 12.83829000000000
endheader
time	ground_force1_vx	ground_force1_vy	ground_force1_vz	ground_force1_px	ground_force1_py	ground_force1_pz	ground_force2_vx	ground_force2_vy	ground_force2_vz	ground_force2_px	ground_force2_py	ground_force2_pz	ground_torque1_x	ground_torque1_y	ground_torque1_z	ground_torque2_x	ground_torque2_y	ground_torque2_z	
12.82161700000000	-7.18383200000000	41.88888400000000	-10.41699400000000	0.28312800000000	0.00000000000000	0.08875300000000	-52.75464700000000	782.92321000000004	-50.27971400000000	0.09431400000000	0.00000000000000	-0.08696300000000	0.00000000000000	-6.23197400000000	0.00000000000000	0.00000000000000	-16.32147000000000	0.00000000000000	
12.82328300000000	-7.74331700000000	49.10625400000000	-11.70027300000000	0.28768700000000	0.00000000000000	0.08987000000000	-53.62300600000000	780.10772199999997	-49.89404700000000	0.09325500000000	0.00000000000000	-0.08681800000000	0.00000000000000	-7.09957800000000	0.00000000000000	0.00000000000000	-16.33295500000000	0.00000000000000	
12.82495100000000	-8.13086700000000	56.41978000000000	-12.86127800000000	0.29198400000000	0.00000000000000	0.09089000000000	-54.50962700000000	777.17411000000004	-49.49158800000000	0.09220000000000	0.00000000000000	-0.08667000000000	0.00000000000000	-7.91671000000000	0.00000000000000	0.00000000000000	-16.34788000000000	0.00000000000000	
12.82661900000000	-8.32685600000000	63.73668400000000	-13.87234500000000	0.29605600000000	0.00000000000000	0.09182700000000	-55.41321900000000	774.11883100000000	-49.07216700000000	0.09115000000000	0.00000000000000	-0.08651800000000	0.00000000000000	-8.66546600000000	0.00000000000000	0.00000000000000	-16.36604900000000	0.00000000000000	
12.82828900000000	-8.32071600000000	70.98715100000000	-14.71518400000000	0.29993300000000	0.00000000000000	0.09269400000000	-56.33236900000000	770.93827999999996	-48.63562200000000	0.09010700000000	0.00000000000000	-0.08636300000000	0.00000000000000	-9.33302800000000	0.00000000000000	0.00000000000000	-16.38724100000000	0.00000000000000	
12.82995600000000	-8.11066300000000	78.12649300000000	-15.38099400000000	0.30364000000000	0.00000000000000	0.09349900000000	-57.26554400000000	767.62880500000006	-48.18180600000000	0.08907200000000	0.00000000000000	-0.08620400000000	0.00000000000000	-9.91192700000000	0.00000000000000	0.00000000000000	-16.41121200000000	0.00000000000000	
12.83162200000000	-7.70275600000000	85.13487600000001	-15.86977400000000	0.30719500000000	0.00000000000000	0.09425100000000	-58.21109500000000	764.18671700000004	-47.71058400000000	0.08804600000000	0.00000000000000	-0.08604100000000	0.00000000000000	-10.39981900000000	0.00000000000000	0.00000000000000	-16.43769100000000	0.00000000000000	
12.83328800000000	-7.10947800000000	92.01504500000000	-16.18903400000000	0.31061400000000	0.00000000000000	0.09495500000000	-59.16725600000000	760.60830999999996	-47.22183800000000	0.08703100000000	0.00000000000000	-0.08587500000000	0.00000000000000	-10.79887900000000	0.00000000000000	0.00000000000000	-16.46638600000000	0.00000000000000	
12.83494900000000	-6.34803200000000	98.78857700000000	-16.35211200000000	0.31390800000000	0.00000000000000	0.09561800000000	-60.13215000000000	756.88986899999998	-46.71546900000000	0.08602900000000	0.00000000000000	-0.08570500000000	0.00000000000000	-11.11493500000000	0.00000000000000	0.00000000000000	-16.49698400000000	0.00000000000000	
12.83662100000000	-5.43854300000000	105.49123500000000	-16.37630700000000	0.31708800000000	0.00000000000000	0.09624400000000	-61.10379200000000	753.02768700000001	-46.19140100000000	0.08504000000000	0.00000000000000	-0.08553100000000	0.00000000000000	-11.35643600000000	0.00000000000000	0.00000000000000	-16.52914700000000	0.00000000000000	
12.83829000000000	-4.40233300000000	112.16795100000000	-16.28101100000000	0.32016200000000	0.00000000000000	0.09683700000000	-62.08009400000000	749.01808400000004	-45.64958000000000	0.08406700000000	0.00000000000000	-0.08535300000000	0.00000000000000	-11.53339200000000	0.00000000000000	0.00000000000000	-16.56251900000000	0.00000000000000	
